<svg id="Capa_1" enable-background="new 0 0 476.119 476.119" height="512" viewBox="0 0 476.119 476.119" width="512" xmlns="http://www.w3.org/2000/svg"><g><path d="m66.648 455.127c-36.809-.001-66.649-29.842-66.648-66.652 0-11.569 3.012-22.938 8.739-32.99l171.405-300.832c18.225-31.981 58.926-43.132 90.907-24.907 10.386 5.919 18.988 14.521 24.907 24.907l171.411 300.832c18.221 31.984 7.064 72.683-24.919 90.904-10.052 5.727-21.422 8.738-32.991 8.738z" fill="#ef5261"/><path d="m409.459 419.983h-342.811c-17.41.002-31.525-14.109-31.527-31.519-.001-5.475 1.425-10.857 4.136-15.614l171.406-300.808c8.617-15.128 27.866-20.406 42.993-11.789 4.916 2.8 8.989 6.873 11.789 11.789l171.405 300.831c8.608 15.133 3.319 34.378-11.814 42.987-4.747 2.7-10.115 4.121-15.577 4.123z" fill="#eeefee"/><path d="m252.842 323.572-5.607-113.082h-18.364l-5.607 113.082v45.738h29.572zm0-165.747h-29.578v29.572h29.572z" fill="#ef5261"/></g></svg>